<svg viewBox="0 0 248 457" xmlns="http://www.w3.org/2000/svg" xml:space="preserve" style="fill-rule:evenodd;clip-rule:evenodd;stroke-linejoin:round;stroke-miterlimit:2"><path d="M42.222 204.392c-7.7-10.837-16.717-4.893-27.553 2.806S-4.748 221.457 2.95 232.294l3.771 5.307c7.7 10.837 22.75 13.384 33.586 5.685s13.385-22.75 5.685-33.586zm67.213-73.096c6.708 8.226 10.731 18.722 10.731 30.151 0 12.128-4.53 23.205-11.988 31.631v.536c0 2.541.296 5.013.857 7.384 19.114 4.883 33.265 22.235 33.265 42.865v71.22c0 9.873-4.65 18.668-11.88 24.313v93.879c0 13.094 10.631 23.725 23.725 23.725 11.057 0 20.357-7.58 22.984-17.823C179.755 449.42 189.056 457 200.112 457c13.095 0 23.725-10.631 23.725-23.725V286.251c13.095 0 23.725-10.631 23.725-23.725v-122.32c0-17.688-14.36-32.049-32.048-32.049h-75.288c-14.596 0-26.926 9.779-30.791 23.139M177.87 0c26.588 0 48.174 21.586 48.174 48.174s-21.586 48.174-48.174 48.174-48.174-21.586-48.174-48.174S151.282 0 177.87 0"/><path d="M57.429 209.621c6.587 14.555 2.18 32.222-11.328 41.819-11.008 7.822-25.088 8.172-36.188 2.074v61.569c0 11.06 8.638 20.119 19.53 20.791v100.294c0 11.498 9.334 20.832 20.832 20.832 9.708 0 17.874-6.656 20.181-15.649C72.762 450.344 80.928 457 90.637 457c11.497 0 20.831-9.334 20.831-20.832V335.915c11.498 0 20.832-9.335 20.832-20.832v-71.22c0-18.899-15.343-34.242-34.242-34.242zm14.98-85.932c20.839 0 37.757 16.919 37.757 37.758s-16.918 37.758-37.757 37.758c-20.84 0-37.758-16.919-37.758-37.758s16.918-37.758 37.758-37.758"/></svg>